<?xml version="1.0" standalone="no"?>
<!DOCTYPE svg PUBLIC "-//W3C//DTD SVG 20010904//EN"
 "http://www.w3.org/TR/2001/REC-SVG-20010904/DTD/svg10.dtd">
<svg version="1.0" xmlns="http://www.w3.org/2000/svg"
 width="67" height="83" viewBox="0 0 512.000000 512.000000"
 preserveAspectRatio="xMidYMid meet">

<g transform="translate(0.000000,512.000000) scale(0.100000,-0.100000)"
fill="#000000" stroke="none">
<path d="M800 4947 c-49 -16 -133 -102 -148 -153 -9 -31 -12 -246 -12 -856 l0
-815 -91 -5 c-78 -5 -100 -11 -163 -42 -88 -43 -146 -102 -189 -194 l-32 -67
-3 -210 c-3 -199 1 -255 78 -1049 76 -797 80 -852 80 -1093 l0 -254 25 -24 24
-25 911 0 911 0 24 25 25 24 0 243 0 243 148 212 147 212 86 1 c100 0 82 19
144 -154 l35 -98 0 -330 0 -329 25 -24 24 -25 831 0 831 0 24 25 25 24 0 328
0 329 189 530 c104 291 195 557 201 590 8 39 10 137 8 279 -3 210 -5 222 -28
270 -31 64 -91 124 -155 155 -41 20 -65 25 -135 25 -77 0 -91 -3 -145 -33
l-59 -32 -45 46 c-64 68 -137 99 -231 99 -65 0 -85 -4 -140 -32 l-65 -32 -44
46 c-83 86 -207 121 -312 89 -30 -10 -59 -20 -66 -22 -10 -4 -13 150 -15 698
l-3 703 -34 63 c-86 158 -251 210 -428 136 -10 -4 -13 30 -13 152 0 94 -5 173
-12 198 -16 55 -99 138 -154 154 -56 16 -2021 15 -2074 -1z m2055 -172 l25
-24 0 -836 c0 -666 -3 -836 -12 -831 -7 2 -37 12 -67 22 -141 43 -302 -30
-371 -171 l-25 -50 -3 -420 c-2 -291 0 -438 8 -480 7 -33 63 -204 126 -379 63
-176 114 -321 114 -323 0 -2 -405 -3 -900 -3 l-901 0 -24 25 c-24 23 -25 29
-25 160 l0 135 720 0 720 0 0 80 0 80 -720 0 -720 0 0 279 0 279 208 4 208 3
76 37 c91 45 147 103 191 196 29 61 32 76 32 162 0 86 -3 101 -32 162 -44 93
-100 151 -191 196 l-76 37 -208 3 -208 4 0 814 0 815 25 24 24 25 991 0 991 0
24 -25z m441 -490 c68 -52 64 11 64 -1110 l0 -1015 80 0 80 0 0 216 c0 242 5
264 68 312 29 22 46 27 92 27 47 0 63 -5 94 -29 61 -46 66 -68 66 -311 l0
-215 79 0 80 0 3 189 c3 173 5 192 24 217 39 52 71 69 133 69 48 0 64 -5 95
-29 61 -46 66 -68 66 -311 l0 -215 80 0 80 0 0 176 c0 198 7 225 68 272 29 22
46 27 92 27 46 0 63 -5 92 -27 63 -48 68 -71 68 -295 0 -125 -5 -215 -13 -244
-6 -25 -91 -267 -187 -537 l-175 -492 -745 0 -745 0 -185 518 -185 517 0 432
c0 420 1 432 21 459 39 53 71 69 134 69 63 0 95 -16 134 -69 20 -26 21 -42 24
-377 l3 -349 79 0 80 0 2 1028 3 1029 27 35 c56 74 152 88 224 33z m-2102
-1337 c86 -26 166 -136 166 -228 0 -92 -80 -202 -166 -228 -27 -8 -120 -12
-273 -12 l-232 0 -24 -25 -25 -24 0 -552 c0 -394 3 -563 12 -591 15 -49 76
-120 125 -144 36 -18 80 -19 800 -24 l761 -5 -110 -157 -110 -158 -824 0
c-747 0 -824 1 -824 16 0 9 -34 368 -75 799 -61 638 -75 815 -75 960 0 110 5
193 12 219 15 51 99 137 148 153 51 16 660 17 714 1z m2006 -2388 l0 -240
-120 0 -120 0 0 240 0 240 120 0 120 0 0 -240z m400 0 l0 -240 -120 0 -120 0
0 240 0 240 120 0 120 0 0 -240z m400 0 l0 -240 -120 0 -120 0 0 240 0 240
120 0 120 0 0 -240z m400 0 l0 -240 -120 0 -120 0 0 240 0 240 120 0 120 0 0
-240z m-2320 -80 l0 -160 -800 0 -800 0 0 160 0 160 800 0 800 0 0 -160z"/>
<path d="M1695 4626 c-218 -43 -405 -168 -525 -353 -89 -136 -125 -259 -125
-433 0 -174 36 -297 124 -432 243 -371 737 -478 1104 -238 427 278 490 875
131 1234 -103 104 -222 171 -374 212 -78 22 -250 26 -335 10z m279 -161 c367
-78 594 -474 473 -824 -36 -102 -81 -174 -157 -251 -254 -253 -647 -253 -901
1 -251 249 -251 648 0 900 156 155 371 219 585 174z"/>
<path d="M1760 4271 c0 -41 -3 -51 -21 -56 -33 -11 -88 -65 -112 -109 -29 -56
-30 -155 0 -211 41 -77 129 -134 206 -135 77 0 115 -83 62 -135 -15 -16 -36
-25 -55 -25 -33 0 -80 38 -80 65 0 12 -15 15 -80 15 -89 0 -90 0 -68 -72 14
-48 76 -121 118 -138 28 -11 30 -16 30 -61 l0 -49 80 0 80 0 0 49 c0 41 3 51
21 56 60 19 124 109 136 190 18 131 -101 265 -236 265 -42 0 -81 38 -81 80 0
41 39 80 80 80 33 0 80 -38 80 -65 0 -12 15 -15 80 -15 89 0 90 0 68 72 -14
48 -76 121 -118 138 -28 11 -30 16 -30 61 l0 49 -80 0 -80 0 0 -49z"/>
<path d="M4557 4562 c-26 -26 -47 -52 -47 -57 0 -5 39 -49 87 -97 l88 -88
-463 0 -462 0 0 -80 0 -80 462 0 463 0 -90 -90 -90 -90 58 -58 57 -57 170 171
c153 153 170 174 170 204 0 30 -17 51 -167 202 -92 92 -172 168 -178 168 -6 0
-32 -22 -58 -48z"/>
<path d="M3847 3802 c-150 -151 -167 -172 -167 -202 0 -30 17 -51 170 -204
l170 -171 57 57 58 58 -90 90 -90 90 463 0 462 0 0 80 0 80 -462 0 -463 0 88
88 c48 48 87 92 87 98 0 13 -92 104 -106 104 -5 0 -85 -76 -177 -168z"/>
</g>
</svg>
