<?xml version="1.0" standalone="no"?>
<!DOCTYPE svg PUBLIC "-//W3C//DTD SVG 20010904//EN"
 "http://www.w3.org/TR/2001/REC-SVG-20010904/DTD/svg10.dtd">
<svg version="1.0" xmlns="http://www.w3.org/2000/svg"
 width="67" height="83" viewBox="0 0 512.000000 512.000000"
 preserveAspectRatio="xMidYMid meet">

<g transform="translate(0.000000,512.000000) scale(0.100000,-0.100000)"
fill="#000000" stroke="none">
<path d="M2638 5105 c-232 -38 -447 -146 -620 -313 -52 -50 -71 -62 -87 -57
-31 10 -238 -12 -325 -35 -111 -28 -236 -81 -334 -142 -100 -62 -255 -206
-319 -295 l-45 -63 -57 0 c-232 0 -461 -187 -516 -422 -23 -96 -22 -3265 0
-3353 52 -204 212 -362 416 -410 93 -22 3277 -23 3391 -1 327 63 578 310 643
632 14 70 15 234 13 1494 l-3 1415 -24 70 c-33 99 -82 192 -141 270 l-51 67
25 37 c109 158 51 383 -120 467 -42 20 -76 29 -134 32 l-77 4 -6 78 c-12 182
-127 298 -303 308 -73 4 -88 1 -143 -23 -37 -17 -77 -45 -102 -72 l-41 -45
-52 49 c-74 72 -105 93 -137 93 -38 0 -69 -32 -69 -71 0 -26 17 -47 105 -133
99 -97 105 -105 105 -143 l0 -40 -77 -5 c-105 -6 -170 -36 -232 -104 -59 -65
-81 -124 -81 -219 0 -60 5 -82 30 -133 57 -112 147 -170 280 -179 l78 -6 4
-76 c5 -89 30 -151 83 -209 l37 -41 -33 -58 c-38 -68 -99 -155 -142 -200 l-31
-33 -268 0 c-147 0 -268 3 -268 8 0 4 5 23 10 42 38 129 42 353 10 511 -48
238 -161 442 -338 611 -130 124 -281 214 -450 268 -46 15 -82 31 -81 36 4 14
88 78 154 115 256 148 558 178 839 84 66 -23 82 -25 106 -15 39 16 56 59 38
97 -40 84 -424 147 -660 108z m1411 -394 c53 -38 71 -89 71 -209 0 -96 2 -105
25 -127 23 -23 31 -25 130 -25 86 0 113 -4 145 -20 54 -27 83 -72 88 -136 4
-44 0 -61 -22 -98 -39 -67 -87 -86 -216 -86 -93 0 -106 -2 -127 -22 -21 -20
-23 -30 -23 -128 0 -93 -3 -113 -23 -151 -33 -62 -85 -91 -158 -86 -67 4 -111
31 -139 87 -16 32 -20 59 -20 145 0 99 -2 107 -25 130 -22 23 -31 25 -127 25
-88 0 -111 3 -148 23 -62 31 -90 76 -90 144 0 65 18 103 67 140 34 26 44 28
159 33 161 7 157 3 164 163 6 135 19 168 84 209 44 27 139 22 185 -11z m-2054
-131 c237 -27 445 -127 611 -294 131 -132 208 -263 259 -441 46 -159 48 -371
7 -530 l-18 -70 -268 -3 -267 -2 39 55 c76 106 77 216 4 297 -47 52 -84 70
-157 77 l-60 6 -5 290 c-5 284 -5 291 -28 323 -49 68 -154 92 -231 53 -29 -15
-87 -85 -254 -304 -119 -157 -226 -300 -237 -319 -50 -85 -31 -197 45 -266 53
-50 95 -62 208 -62 l87 0 0 -75 0 -75 -402 2 -403 3 -17 64 c-60 222 -37 477
61 687 157 335 475 556 846 587 79 7 91 7 180 -3z m-5 -692 c6 -385 -4 -360
147 -368 91 -5 97 -7 117 -33 26 -35 19 -53 -58 -164 l-57 -83 -130 0 -129 0
0 109 c0 60 -5 122 -10 137 -19 49 -35 53 -178 54 -129 0 -134 1 -158 25 -17
17 -24 34 -22 51 2 14 96 148 218 310 167 220 219 283 235 281 19 -2 20 -11
25 -319z m-1170 156 c0 -3 -13 -43 -30 -90 -64 -181 -81 -411 -46 -598 9 -48
15 -91 12 -93 -12 -12 -124 54 -169 99 -128 128 -153 336 -61 494 29 49 107
125 155 150 57 29 139 52 139 38z m3683 -230 c27 -32 64 -91 82 -129 59 -121
65 -166 65 -489 l0 -289 -39 49 c-65 81 -177 165 -285 214 -115 52 -176 63
-384 69 l-192 6 34 48 c19 27 50 78 68 113 l33 64 62 0 c177 0 309 130 321
315 l5 75 56 1 c31 1 67 5 81 9 36 12 40 9 93 -56z m-3870 -666 c120 -60 42
-58 1818 -58 1573 0 1628 -1 1701 -19 111 -29 207 -81 287 -157 86 -81 133
-150 174 -257 l32 -82 3 -920 c3 -1034 5 -995 -70 -1148 -58 -116 -171 -228
-288 -286 -138 -67 -169 -71 -637 -71 l-413 0 0 408 0 407 162 161 163 161 61
2 c137 2 251 79 313 211 37 80 37 201 -1 282 -107 230 -394 286 -574 111 -62
-59 -97 -139 -102 -228 l-4 -70 -208 -210 c-133 -133 -215 -224 -224 -247 -14
-32 -16 -106 -16 -513 l0 -475 -50 0 -50 0 0 671 c0 478 -3 684 -12 717 -10
40 -29 65 -138 177 l-128 130 -4 75 c-8 128 -83 242 -196 297 -50 24 -69 28
-152 28 -88 0 -101 -3 -162 -33 -77 -38 -128 -91 -167 -172 -22 -47 -26 -68
-26 -145 1 -77 4 -98 28 -145 62 -127 191 -210 325 -210 45 0 50 -3 124 -77
l78 -78 0 -76 c0 -85 14 -113 62 -125 22 -5 33 0 58 24 29 30 30 33 30 127 0
114 -6 128 -88 208 l-60 59 46 45 45 46 94 -95 93 -95 0 -677 0 -676 -65 0
-65 0 0 414 c0 403 -1 414 -21 440 -26 33 -79 36 -109 6 -19 -19 -20 -33 -20
-440 l0 -420 -50 0 -50 0 0 288 c0 282 -1 288 -24 337 -18 37 -77 103 -225
250 -195 194 -201 201 -201 240 0 103 -56 227 -129 284 -71 56 -120 74 -211
79 -118 6 -183 -19 -266 -102 -83 -83 -107 -148 -102 -266 3 -75 8 -94 39
-150 63 -114 189 -190 317 -190 l47 0 162 -162 163 -163 0 -222 0 -223 -464 0
c-434 0 -468 1 -528 20 -119 37 -200 109 -255 226 l-28 59 -3 1403 -2 1403 52
-42 c29 -22 79 -54 111 -71z m1537 -1070 c26 -14 57 -41 75 -66 27 -39 30 -52
30 -116 0 -64 -4 -78 -29 -114 -34 -49 -112 -92 -168 -92 -108 0 -207 98 -208
205 0 80 57 165 131 194 44 18 122 12 169 -11z m1540 -256 c136 -71 144 -272
14 -353 -138 -85 -314 11 -314 171 0 63 18 106 63 148 65 63 155 76 237 34z
m-2223 -375 c107 -74 120 -220 28 -312 -130 -130 -345 -41 -345 142 0 82 39
145 115 187 48 26 152 18 202 -17z m1763 -262 l-160 -160 0 -438 0 -437 -65 0
-65 0 0 466 0 467 177 178 177 179 48 -47 48 -48 -160 -160z m-1397 -293 l177
-178 0 -282 0 -282 -65 0 -65 0 0 252 0 252 -162 163 -162 163 44 45 c24 25
47 45 50 45 3 0 85 -80 183 -178z"/>
</g>
</svg>
